<svg width="1282" height="512" viewBox="0 0 1282 512" fill="none" xmlns="http://www.w3.org/2000/svg">
<path d="M44.032 407V55.256H95.744V238.552L261.632 55.256H327.68L183.296 213.464L337.408 407H272.384L146.944 249.304L95.744 304.088V407H44.032ZM375.732 98.264C358.324 98.264 345.012 83.928 345.012 67.544C345.012 51.672 358.324 37.336 375.732 37.336C392.116 37.336 405.94 51.672 405.94 67.544C405.94 83.928 392.116 98.264 375.732 98.264ZM350.132 407V142.296H400.82V407H350.132ZM578.08 136.152C636.448 136.152 677.408 178.648 677.408 238.552V407H627.744V247.256C627.744 207.832 602.656 180.184 566.816 180.184C529.952 180.184 498.208 204.248 494.112 235.48V407H443.424V142.296H494.112V180.696C509.984 154.584 542.24 136.152 578.08 136.152ZM853.86 136.152C912.228 136.152 953.188 178.648 953.188 238.552V407H903.524V247.256C903.524 207.832 878.436 180.184 842.596 180.184C805.732 180.184 773.988 204.248 769.892 235.48V407H719.204V142.296H769.892V180.696C785.764 154.584 818.02 136.152 853.86 136.152ZM1120.42 413.144C1044.65 413.144 980.648 349.656 980.648 274.392C980.648 199.128 1044.65 136.152 1120.42 136.152C1195.69 136.152 1259.18 199.128 1259.18 274.392C1259.18 349.656 1195.69 413.144 1120.42 413.144ZM1120.42 369.112C1168.04 369.112 1208.49 326.104 1208.49 274.392C1208.49 223.192 1168.04 180.184 1120.42 180.184C1071.78 180.184 1031.34 223.192 1031.34 274.392C1031.34 326.104 1071.78 369.112 1120.42 369.112Z" fill="black"/>
<circle cx="376" cy="68" r="31" fill="#FF0006"/>
</svg>
